# xmcd
#
# Track frame offsets:
# 150
# 31500
# 65575
# 95387
# 128725
# 168562
# 184787
# 219725
# 245700
# 287825
#
# Disc length: 4147 seconds
#
#
# Revision: 4
# Processed by: cddbd v1.5PL3 Copyright (c) Steve Scherf et al.
# Submitted via: FreeRIP 2.60 
#
DISCID=9010310a
DTITLE=Yanni - Live at the Acropolis
DYEAR=1993
DGENRE=New Age
TTITLE0=Santorini
TTITLE1=Keys to Imagination
TTITLE2=Until the Last Moment
TTITLE3=The Rain must Fall
TTITLE4=Acrovali/Standing in Motion (Medley)
TTITLE5=One Man's Dream
TTITLE6=Within Attraction
TTITLE7=Nostalgia
TTITLE8=Swept Away
TTITLE9=Reflections of Passion
EXTD=YEAR: 1993
EXTT0=
EXTT1=
EXTT2=
EXTT3=
EXTT4=
EXTT5=
EXTT6=
EXTT7=
EXTT8=
EXTT9=
PLAYORDER=
